<svg width="60" height="60" viewBox="0 0 60 60" fill="none" xmlns="http://www.w3.org/2000/svg">
<path d="M25.3794 7.46873C27.5033 4.0357 32.4967 4.0357 34.6206 7.46873C35.9425 9.6055 38.5571 10.5571 40.9433 9.77C44.7769 8.50534 48.6021 11.715 48.0224 15.7101C47.6615 18.1967 49.0528 20.6063 51.3866 21.5371C55.1363 23.0326 56.0034 27.9501 52.9913 30.6379C51.1166 32.3107 50.6334 35.0509 51.8229 37.2641C53.7341 40.8199 51.2374 45.1444 47.2024 45.2672C44.6909 45.3436 42.5594 47.1321 42.0481 49.5921C41.2264 53.5445 36.5342 55.2524 33.3642 52.7528C31.3912 51.197 28.6088 51.197 26.6358 52.7528C23.4658 55.2524 18.7736 53.5445 17.9519 49.5921C17.4406 47.1321 15.3091 45.3436 12.7976 45.2672C8.76261 45.1444 6.2659 40.8199 8.17706 37.2641C9.3666 35.0509 8.88344 32.3107 7.00868 30.6379C3.99661 27.9501 4.8637 23.0326 8.61338 21.5371C10.9472 20.6063 12.3385 18.1967 11.9776 15.7101C11.3979 11.715 15.2231 8.50534 19.0567 9.77C21.4429 10.5571 24.0575 9.6055 25.3794 7.46873Z" fill="white"/>
<g clip-path="url(#clip0_255_1241)">
<path d="M42.0112 29.5254C41.2772 31.3878 39.4605 32.454 37.9536 31.9072C36.4469 31.3601 35.8204 29.407 36.5547 27.5446C37.2886 25.6823 39.1054 24.6161 40.6123 25.1628C42.119 25.71 42.7455 27.663 42.0112 29.5254ZM36.9947 23.2124C36.8656 25.5234 35.297 27.3216 33.4908 27.2288C31.6848 27.136 30.3251 25.1876 30.4539 22.8766C30.583 20.5657 32.1517 18.7676 33.9578 18.8604C35.7638 18.9532 37.1236 20.9018 36.9947 23.2124ZM17.4821 29.7502C18.2533 31.5986 20.0909 32.6316 21.5866 32.0569C23.0822 31.4826 23.6697 29.5183 22.8985 27.6697C22.1275 25.8212 20.29 24.7884 18.7943 25.3628C17.2985 25.9374 16.7111 27.9016 17.4821 29.7502ZM28.873 22.597C29.2879 24.8767 28.1802 26.967 26.3985 27.2657C24.6166 27.5644 22.8359 25.9586 22.4206 23.679C22.0056 21.3993 23.1135 19.3091 24.8952 19.0104C26.677 18.7116 28.4577 20.3175 28.873 22.597Z" fill="#E11D48"/>
<path fill-rule="evenodd" clip-rule="evenodd" d="M29.3033 26.7769C27.2541 27.3503 25.2974 29.2167 23.0656 32.3801C20.6593 35.7915 21.6434 37.8776 22.746 38.9769C23.8488 40.0759 26.1602 40.0547 28.138 38.7426C29.7482 37.6741 30.5226 38.1656 31.4864 38.7777C31.7065 38.9175 31.9363 39.0632 32.1883 39.1983C33.5441 39.9253 35.8605 40.3971 37.6321 37.7311C39.283 35.2471 37.099 32.6384 35.8993 31.2053C35.8113 31.1005 35.7286 31.0018 35.6532 30.9099C34.5483 29.5644 31.3525 26.2034 29.3033 26.7769ZM27.8755 33.7061C27.7024 33.8478 27.6076 34.0434 27.5911 34.2929C27.5774 34.5031 27.6465 34.6938 27.7989 34.8652C27.9516 35.0314 28.1544 35.1741 28.4076 35.2924C28.6609 35.4061 28.9342 35.4916 29.2271 35.5485C29.204 35.5914 29.1854 35.6395 29.1714 35.6925C29.1579 35.7456 29.1488 35.8066 29.1442 35.8748C29.1332 36.0414 29.176 36.1691 29.2724 36.2582C29.3739 36.348 29.4987 36.3974 29.6462 36.4065C29.7941 36.4154 29.9192 36.3812 30.0214 36.3039C30.1289 36.227 30.1881 36.1055 30.1989 35.9393C30.2071 35.817 30.1961 35.7133 30.166 35.6278C30.6632 35.6139 31.0644 35.5034 31.3697 35.2961C31.6805 35.0843 31.8509 34.751 31.8809 34.2962C31.8997 34.0126 31.8459 33.7836 31.7194 33.609C31.5982 33.4297 31.4184 33.2836 31.1802 33.1711C30.9424 33.0535 30.6632 32.9455 30.3422 32.8475L29.9582 32.7358C29.6973 32.6561 29.5151 32.586 29.4119 32.5257C29.3138 32.4609 29.2679 32.3796 29.2744 32.2818C29.28 32.1986 29.3221 32.1398 29.4012 32.1054C29.4857 32.0662 29.6195 32.0522 29.8031 32.0635C29.9917 32.075 30.1557 32.107 30.2955 32.1599C30.4404 32.2127 30.5775 32.2654 30.707 32.3174C30.8372 32.3646 30.9709 32.3923 31.1084 32.4008C31.3173 32.4134 31.4869 32.3626 31.6173 32.2477C31.7528 32.1331 31.8279 31.9634 31.843 31.7386C31.8602 31.4793 31.739 31.2584 31.48 31.0757C31.2264 30.8886 30.8999 30.758 30.5005 30.6846C30.5367 30.6035 30.5581 30.5089 30.5654 30.4014C30.5766 30.2303 30.5338 30.1025 30.4372 30.018C30.3458 29.929 30.2264 29.88 30.0785 29.8711C29.9308 29.862 29.8006 29.8957 29.688 29.9725C29.581 30.0443 29.5218 30.1661 29.5104 30.3371C29.507 30.3909 29.5062 30.4424 29.5079 30.4917C29.5097 30.541 29.5196 30.5857 29.5375 30.6261C29.2346 30.642 28.96 30.694 28.7137 30.782C28.4672 30.8701 28.2693 31.0004 28.1199 31.1731C27.9705 31.3406 27.8871 31.559 27.8693 31.8279C27.8505 32.1115 27.9198 32.3415 28.0769 32.5181C28.2341 32.6947 28.4546 32.8405 28.7388 32.9561C29.0231 33.0666 29.3409 33.1744 29.692 33.2791L30.0382 33.3814C30.1838 33.4246 30.2954 33.4754 30.3735 33.5343C30.4568 33.5883 30.4955 33.6621 30.4893 33.7551C30.4845 33.8282 30.4496 33.8924 30.3845 33.9473C30.325 33.9978 30.1956 34.0169 29.9969 34.005C29.783 33.9917 29.5939 33.9483 29.43 33.8746C29.2661 33.8009 29.1071 33.7272 28.9535 33.6541C28.8052 33.5762 28.647 33.5297 28.4791 33.5149C28.2551 33.4961 28.054 33.5601 27.8755 33.7061Z" fill="#E11D48"/>
</g>
<defs>
<clipPath id="clip0_255_1241">
<rect width="25.2" height="21" fill="white" transform="translate(17.1428 18.8569)"/>
</clipPath>
</defs>
</svg>
