<svg width="58" height="58" viewBox="0 0 58 58" fill="none" xmlns="http://www.w3.org/2000/svg">
<path d="M24.5335 7.21977C26.5865 3.90117 31.4135 3.90117 33.4665 7.21977C34.7444 9.28532 37.2719 10.2052 39.5785 9.44434C43.2844 8.22183 46.982 11.3245 46.4216 15.1864C46.0728 17.5901 47.4177 19.9194 49.6737 20.8192C53.2984 22.2648 54.1366 27.0184 51.2249 29.6166C49.4127 31.2337 48.9456 33.8825 50.0955 36.022C51.943 39.4593 49.5295 43.6395 45.629 43.7583C43.2012 43.8321 41.1408 45.561 40.6465 47.9391C39.8522 51.7597 35.3164 53.4106 32.2521 50.9944C30.3448 49.4904 27.6552 49.4904 25.7479 50.9944C22.6836 53.4106 18.1478 51.7597 17.3535 47.9391C16.8592 45.561 14.7988 43.8321 12.371 43.7583C8.47052 43.6395 6.05704 39.4593 7.9045 36.022C9.05438 33.8825 8.58732 31.2337 6.77506 29.6166C3.86338 27.0184 4.70158 22.2648 8.32627 20.8192C10.5823 19.9194 11.9272 17.5901 11.5784 15.1864C11.018 11.3245 14.7156 8.22183 18.4215 9.44434C20.7281 10.2052 23.2556 9.28532 24.5335 7.21977Z" fill="#E5E7EB"/>
<g clip-path="url(#clip0_246_336)">
<path d="M40.8594 28.8729C40.1499 30.6733 38.3937 31.7039 36.9371 31.1753C35.4806 30.6465 34.875 28.7585 35.5848 26.9582C36.2943 25.1579 38.0505 24.1273 39.5072 24.6558C40.9636 25.1847 41.5692 27.0726 40.8594 28.8729ZM36.0101 22.7703C35.8854 25.0043 34.369 26.7426 32.6231 26.6529C30.8772 26.5632 29.5629 24.6797 29.6874 22.4458C29.8122 20.2119 31.3286 18.4737 33.0745 18.5634C34.8203 18.6531 36.1348 20.5368 36.0101 22.7703ZM17.148 29.0902C17.8934 30.877 19.6698 31.8755 21.1156 31.32C22.5614 30.7649 23.1294 28.866 22.3838 27.0791C21.6385 25.2922 19.8623 24.2938 18.4164 24.8491C16.9705 25.4045 16.4027 27.3032 17.148 29.0902ZM28.1592 22.1755C28.5603 24.3792 27.4894 26.3998 25.7672 26.6886C24.0447 26.9772 22.3233 25.425 21.9219 23.2214C21.5207 21.0177 22.5917 18.9972 24.3139 18.7084C26.0364 18.4195 27.7578 19.9719 28.1592 22.1755Z" fill="#9CA3AF"/>
<path fill-rule="evenodd" clip-rule="evenodd" d="M28.5751 26.216C26.5942 26.7703 24.7027 28.5745 22.5454 31.6325C20.2193 34.9301 21.1705 36.9467 22.2364 38.0093C23.3024 39.0717 25.5368 39.0512 27.4487 37.7829C29.0052 36.75 29.7537 37.2251 30.6855 37.8168C30.8982 37.9519 31.1204 38.0928 31.364 38.2234C32.6745 38.9262 34.9137 39.3822 36.6263 36.8051C38.2221 34.4038 36.111 31.8821 34.9512 30.4968C34.8661 30.3955 34.7863 30.3001 34.7134 30.2112C33.6453 28.9106 30.556 25.6616 28.5751 26.216ZM27.1949 32.9142C27.0276 33.0512 26.9359 33.2403 26.92 33.4815C26.9067 33.6847 26.9736 33.869 27.1208 34.0347C27.2685 34.1954 27.4645 34.3333 27.7092 34.4477C27.9541 34.5576 28.2183 34.6402 28.5015 34.6952C28.4791 34.7367 28.4611 34.7832 28.4476 34.8344C28.4345 34.8858 28.4257 34.9447 28.4213 35.0106C28.4106 35.1717 28.452 35.2952 28.5453 35.3813C28.6433 35.468 28.7639 35.5158 28.9066 35.5246C29.0496 35.5332 29.1705 35.5002 29.2693 35.4254C29.3732 35.3511 29.4304 35.2337 29.4409 35.073C29.4488 34.9547 29.4381 34.8546 29.409 34.7719C29.8896 34.7584 30.2775 34.6516 30.5726 34.4512C30.8731 34.2465 31.0378 33.9243 31.0668 33.4847C31.0849 33.2105 31.033 32.9892 30.9106 32.8203C30.7935 32.647 30.6197 32.5058 30.3895 32.3971C30.1596 32.2834 29.8896 32.179 29.5794 32.0843L29.2082 31.9763C28.956 31.8993 28.7799 31.8314 28.6801 31.7732C28.5853 31.7105 28.5409 31.632 28.5472 31.5374C28.5526 31.457 28.5932 31.4001 28.6697 31.3669C28.7514 31.329 28.8808 31.3155 29.0583 31.3264C29.2405 31.3375 29.3991 31.3684 29.5342 31.4196C29.6743 31.4706 29.8068 31.5216 29.932 31.5718C30.0579 31.6175 30.1871 31.6443 30.3201 31.6524C30.522 31.6646 30.6859 31.6155 30.812 31.5044C30.943 31.3937 31.0156 31.2296 31.0302 31.0123C31.0467 30.7617 30.9296 30.5481 30.6792 30.3715C30.4341 30.1907 30.1185 30.0644 29.7324 29.9935C29.7674 29.9151 29.7881 29.8236 29.7951 29.7197C29.8059 29.5543 29.7646 29.4308 29.6712 29.349C29.5828 29.263 29.4675 29.2156 29.3245 29.207C29.1817 29.1982 29.0558 29.2308 28.947 29.3051C28.8435 29.3745 28.7863 29.4923 28.7753 29.6575C28.772 29.7095 28.7713 29.7593 28.7729 29.807C28.7747 29.8546 28.7842 29.8978 28.8015 29.9369C28.5087 29.9522 28.2432 30.0025 28.0051 30.0876C27.7668 30.1728 27.5755 30.2987 27.4312 30.4656C27.2867 30.6276 27.2061 30.8387 27.1889 31.0986C27.1707 31.3728 27.2377 31.5951 27.3896 31.7658C27.5415 31.9365 27.7546 32.0775 28.0294 32.1893C28.3042 32.2961 28.6115 32.4003 28.9509 32.5015L29.2855 32.6004C29.4262 32.6421 29.5341 32.6912 29.6096 32.7482C29.6902 32.8004 29.7275 32.8717 29.7216 32.9616C29.7169 33.0323 29.6832 33.0943 29.6203 33.1474C29.5628 33.1962 29.4377 33.2147 29.2456 33.2031C29.0388 33.1903 28.856 33.1484 28.6975 33.0771C28.5391 33.0059 28.3854 32.9347 28.237 32.8639C28.0936 32.7887 27.9406 32.7437 27.7784 32.7294C27.5619 32.7113 27.3675 32.7731 27.1949 32.9142Z" fill="#9CA3AF"/>
</g>
<defs>
<clipPath id="clip0_246_336">
<rect width="24.36" height="20.3" fill="white" transform="translate(16.82 18.5601)"/>
</clipPath>
</defs>
</svg>
