<svg width="81" height="81" viewBox="0 0 81 81" fill="none" xmlns="http://www.w3.org/2000/svg">
<g clip-path="url(#clip0_255_1594)">
<path d="M25.7408 67.0866C27.33 71.1434 31.8344 73.2069 35.7512 71.6726L65.13 60.1638C69.0468 58.6294 70.879 53.8718 69.2892 49.8132L55.4692 14.5348C54.5436 12.172 51.2265 12.2135 50.2406 14.4866L45.2429 26.0252L27.4092 33.0113L15.6801 28.0252C13.4035 27.0303 10.9227 29.26 11.8483 31.6228L25.7408 67.0866Z" fill="#FFB02E"/>
<path d="M24.1378 36.2362L20.8999 42.9554C20.3471 44.2202 18.4265 44.134 17.9281 42.8617L14.2257 33.4105C13.7985 32.32 15.1495 30.9522 16.4143 31.5049L23.3546 34.2369C24.1135 34.5686 24.4695 35.4774 24.1378 36.2362ZM49.6743 26.2326L56.6146 28.9646C57.8793 29.5174 59.2303 28.1496 58.7319 26.8773L55.0295 17.4261C54.6023 16.3356 52.6817 16.2493 52.129 17.5141L48.8911 24.2333C48.5594 24.9922 48.9154 25.901 49.6743 26.2326Z" fill="#FF822D"/>
<path d="M45.2163 47.0002L41.4249 48.4854C41.2451 48.5559 41.0903 48.6781 40.98 48.8366C40.8697 48.9952 40.8089 49.1828 40.8053 49.3759C40.8017 49.569 40.8555 49.7588 40.9598 49.9214C41.0641 50.0839 41.2143 50.2118 41.3914 50.2889L44.029 51.4402C44.2662 51.5438 44.5347 51.5489 44.7757 51.4545C45.0167 51.3601 45.2103 51.1739 45.314 50.9368L46.4678 48.3003C46.5454 48.1233 46.5687 47.9272 46.5348 47.7369C46.5009 47.5466 46.4112 47.3707 46.2771 47.2314C46.1431 47.0922 45.9707 46.9958 45.7819 46.9547C45.593 46.9135 45.3962 46.9293 45.2163 47.0002Z" fill="#F70A8D"/>
<path d="M19.2287 57.2916C19.1005 57.2789 18.9711 57.2917 18.8479 57.3292C18.7247 57.3667 18.6101 57.4283 18.5108 57.5103C18.4115 57.5923 18.3294 57.6932 18.2692 57.8071C18.2091 57.921 18.1721 58.0457 18.1604 58.174C18.1486 58.3023 18.1624 58.4316 18.2009 58.5545C18.2394 58.6774 18.3018 58.7915 18.3846 58.8902C18.4674 58.9889 18.5689 59.0702 18.6833 59.1294C18.7977 59.1887 18.9226 59.2247 19.051 59.2355L27.7451 60.0226C27.8733 60.0353 28.0028 60.0225 28.126 59.985C28.2492 59.9474 28.3638 59.8859 28.4631 59.8038C28.5624 59.7218 28.6445 59.6209 28.7046 59.507C28.7648 59.3931 28.8018 59.2685 28.8135 59.1402C28.8252 59.0119 28.8114 58.8826 28.773 58.7597C28.7345 58.6367 28.672 58.5226 28.5892 58.424C28.5064 58.3253 28.4049 58.244 28.2906 58.1847C28.1762 58.1255 28.0512 58.0894 27.9229 58.0787L19.2287 57.2916ZM24.1372 69.8217C24.0518 69.9181 23.9481 69.9967 23.8322 70.0528C23.7163 70.109 23.5904 70.1416 23.4618 70.1489C23.3332 70.1561 23.2044 70.1379 23.0829 70.0951C22.9614 70.0524 22.8496 69.986 22.7538 69.8998C22.6581 69.8136 22.5804 69.7094 22.5251 69.593C22.4699 69.4766 22.4382 69.3505 22.4319 69.2218C22.4257 69.0932 22.4449 68.9646 22.4886 68.8434C22.5323 68.7222 22.5995 68.6109 22.6865 68.5158L28.5326 62.0327C28.6181 61.9363 28.7217 61.8578 28.8376 61.8017C28.9536 61.7455 29.0795 61.7129 29.2081 61.7056C29.3367 61.6984 29.4654 61.7166 29.587 61.7594C29.7085 61.8021 29.8203 61.8685 29.916 61.9547C30.0118 62.0408 30.0895 62.1451 30.1448 62.2615C30.2 62.3778 30.2317 62.504 30.2379 62.6326C30.2442 62.7613 30.2249 62.8899 30.1812 63.0111C30.1376 63.1323 30.0703 63.2436 29.9834 63.3387L24.1372 69.8217ZM68.8664 38.3141C68.6742 38.1415 68.4213 38.052 68.1633 38.0655C67.9052 38.0789 67.6631 38.1941 67.4899 38.3859L61.6437 44.869C61.5532 44.9633 61.4826 45.0748 61.436 45.1969C61.3894 45.3191 61.3679 45.4493 61.3726 45.5799C61.3773 45.7106 61.4082 45.8389 61.4635 45.9574C61.5188 46.0758 61.5973 46.182 61.6944 46.2695C61.7914 46.357 61.9051 46.4242 62.0286 46.4669C62.1521 46.5097 62.283 46.5272 62.4134 46.5185C62.5438 46.5097 62.6711 46.4749 62.7878 46.4159C62.9045 46.357 63.0082 46.2753 63.0927 46.1756L68.9388 39.6925C69.1115 39.5003 69.2009 39.2474 69.1875 38.9894C69.174 38.7314 69.0588 38.4892 68.8671 38.316M72.3984 50.916C72.5281 50.9318 72.6597 50.9214 72.7854 50.8853C72.911 50.8493 73.0282 50.7884 73.1298 50.7063C73.2315 50.6241 73.3156 50.5224 73.3772 50.4071C73.4388 50.2918 73.4766 50.1653 73.4884 50.0351C73.5002 49.905 73.4857 49.7737 73.4458 49.6493C73.4059 49.5248 73.3414 49.4096 73.2562 49.3105C73.1709 49.2114 73.0666 49.1305 72.9495 49.0725C72.8324 49.0145 72.7048 48.9806 72.5743 48.9728L63.8801 48.1858C63.752 48.173 63.6225 48.1858 63.4993 48.2234C63.3761 48.2609 63.2615 48.3225 63.1622 48.4045C63.0629 48.4865 62.9808 48.5874 62.9207 48.7013C62.8605 48.8152 62.8235 48.9399 62.8118 49.0681C62.8001 49.1964 62.8138 49.3257 62.8523 49.4487C62.8908 49.5716 62.9533 49.6857 63.036 49.7844C63.1188 49.883 63.2203 49.9643 63.3347 50.0236C63.4491 50.0829 63.574 50.1189 63.7024 50.1296L72.3984 50.916Z" fill="#FF6723"/>
<path d="M45.532 53.3881C44.9398 54.7501 43.5204 56.0503 41.6247 56.7929C39.749 57.5277 37.848 57.545 36.4899 56.968C37.2235 58.1984 41.2923 64.2608 48.6606 61.3743C56.0289 58.4879 54.8954 51.2756 54.5998 49.8736C53.995 51.2195 52.5881 52.4982 50.7124 53.2329C48.8149 53.9763 46.8918 53.9854 45.532 53.3881Z" fill="#BB1D80"/>
<path d="M33.8769 50.394C33.7559 50.085 33.6664 49.5624 33.7921 49.075C33.901 48.6466 34.1882 48.1756 34.9825 47.8645C35.7767 47.5533 36.3067 47.7021 36.6783 47.9444C37.0998 48.2175 37.391 48.661 37.512 48.97C37.6064 49.211 37.7927 49.4047 38.0299 49.5084C38.2671 49.612 38.5357 49.6172 38.7768 49.5228C39.0178 49.4284 39.2114 49.2421 39.3151 49.0049C39.4188 48.7677 39.424 48.499 39.3295 48.258C39.0946 47.6582 38.5773 46.8462 37.7377 46.303C36.8464 45.7297 35.6572 45.5037 34.2705 46.0469C32.8837 46.5902 32.1644 47.5638 31.8997 48.5899C31.6507 49.5596 31.8244 50.5062 32.0594 51.106C32.1538 51.347 32.3401 51.5407 32.5773 51.6444C32.8145 51.748 33.0831 51.7532 33.3241 51.6588C33.5652 51.5644 33.7588 51.3781 33.8625 51.1409C33.9661 50.9037 33.9713 50.635 33.8769 50.394ZM48.4172 44.698C48.2962 44.389 48.2068 43.8664 48.3324 43.379C48.4413 42.9506 48.7285 42.4796 49.5228 42.1685C50.317 41.8573 50.847 42.0061 51.2187 42.2484C51.6401 42.5214 51.9313 42.965 52.0523 43.274C52.1467 43.515 52.333 43.7087 52.5702 43.8124C52.8074 43.916 53.0761 43.9212 53.3171 43.8268C53.5581 43.7324 53.7517 43.5461 53.8554 43.3089C53.9591 43.0717 53.9643 42.803 53.8699 42.562C53.6349 41.9622 53.1176 41.1502 52.278 40.607C51.3867 40.0337 50.1976 39.8077 48.8108 40.3509C47.424 40.8942 46.7047 41.8678 46.44 42.8939C46.191 43.8636 46.3647 44.8102 46.5997 45.41C46.6941 45.651 46.8804 45.8447 47.1176 45.9484C47.3548 46.052 47.6234 46.0572 47.8645 45.9628C48.1055 45.8684 48.2991 45.6821 48.4028 45.4449C48.5065 45.2077 48.5117 44.939 48.4172 44.698Z" fill="#402A32"/>
<path d="M25.7408 67.0866C27.33 71.1434 31.8344 73.2069 35.7512 71.6726L65.13 60.1638C69.0468 58.6294 70.879 53.8718 69.2892 49.8132L55.4692 14.5348C54.5436 12.172 51.2265 12.2135 50.2406 14.4866L45.2429 26.0252L27.4092 33.0113L15.6801 28.0252C13.4035 27.0303 10.9227 29.26 11.8483 31.6228L25.7408 67.0866Z" fill="#FFB02E"/>
<path d="M24.1378 36.2362L20.8999 42.9554C20.3471 44.2202 18.4265 44.134 17.9281 42.8617L14.2257 33.4105C13.7985 32.32 15.1495 30.9522 16.4143 31.5049L23.3546 34.2369C24.1135 34.5686 24.4695 35.4774 24.1378 36.2362ZM49.6743 26.2326L56.6146 28.9646C57.8793 29.5174 59.2303 28.1496 58.7319 26.8773L55.0295 17.4261C54.6023 16.3356 52.6817 16.2493 52.129 17.5141L48.8911 24.2333C48.5594 24.9922 48.9154 25.901 49.6743 26.2326Z" fill="#FF822D"/>
<path d="M45.2163 47.0002L41.4249 48.4854C41.2451 48.5559 41.0903 48.6781 40.98 48.8366C40.8697 48.9952 40.8089 49.1828 40.8053 49.3759C40.8017 49.569 40.8555 49.7588 40.9598 49.9214C41.0641 50.0839 41.2143 50.2118 41.3914 50.2889L44.029 51.4402C44.2662 51.5438 44.5347 51.5489 44.7757 51.4545C45.0167 51.3601 45.2103 51.1739 45.314 50.9368L46.4678 48.3003C46.5454 48.1233 46.5687 47.9272 46.5348 47.7369C46.5009 47.5466 46.4112 47.3707 46.2771 47.2314C46.1431 47.0922 45.9707 46.9958 45.7819 46.9547C45.593 46.9135 45.3962 46.9293 45.2163 47.0002Z" fill="#F70A8D"/>
<path d="M19.2287 57.2916C19.1005 57.2789 18.9711 57.2917 18.8479 57.3292C18.7247 57.3667 18.6101 57.4283 18.5108 57.5103C18.4115 57.5923 18.3294 57.6932 18.2692 57.8071C18.2091 57.921 18.1721 58.0457 18.1604 58.174C18.1486 58.3023 18.1624 58.4316 18.2009 58.5545C18.2394 58.6774 18.3018 58.7915 18.3846 58.8902C18.4674 58.9889 18.5689 59.0702 18.6833 59.1294C18.7977 59.1887 18.9226 59.2247 19.051 59.2355L27.7451 60.0226C27.8733 60.0353 28.0028 60.0225 28.126 59.985C28.2492 59.9474 28.3638 59.8859 28.4631 59.8038C28.5624 59.7218 28.6445 59.6209 28.7046 59.507C28.7648 59.3931 28.8018 59.2685 28.8135 59.1402C28.8252 59.0119 28.8114 58.8826 28.773 58.7597C28.7345 58.6367 28.672 58.5226 28.5892 58.424C28.5064 58.3253 28.4049 58.244 28.2906 58.1847C28.1762 58.1255 28.0512 58.0894 27.9229 58.0787L19.2287 57.2916ZM24.1372 69.8217C24.0518 69.9181 23.9481 69.9967 23.8322 70.0528C23.7163 70.109 23.5904 70.1416 23.4618 70.1489C23.3332 70.1561 23.2044 70.1379 23.0829 70.0951C22.9614 70.0524 22.8496 69.986 22.7538 69.8998C22.6581 69.8136 22.5804 69.7094 22.5251 69.593C22.4699 69.4766 22.4382 69.3505 22.4319 69.2218C22.4257 69.0932 22.4449 68.9646 22.4886 68.8434C22.5323 68.7222 22.5995 68.6109 22.6865 68.5158L28.5326 62.0327C28.6181 61.9363 28.7217 61.8578 28.8376 61.8017C28.9536 61.7455 29.0795 61.7129 29.2081 61.7056C29.3367 61.6984 29.4654 61.7166 29.587 61.7594C29.7085 61.8021 29.8203 61.8685 29.916 61.9547C30.0118 62.0408 30.0895 62.1451 30.1448 62.2615C30.2 62.3778 30.2317 62.504 30.2379 62.6326C30.2442 62.7613 30.2249 62.8899 30.1812 63.0111C30.1376 63.1323 30.0703 63.2436 29.9834 63.3387L24.1372 69.8217ZM68.8664 38.3141C68.6742 38.1415 68.4213 38.052 68.1633 38.0655C67.9052 38.0789 67.6631 38.1941 67.4899 38.3859L61.6437 44.869C61.5532 44.9633 61.4826 45.0748 61.436 45.1969C61.3894 45.3191 61.3679 45.4493 61.3726 45.5799C61.3773 45.7106 61.4082 45.8389 61.4635 45.9574C61.5188 46.0758 61.5973 46.182 61.6944 46.2695C61.7914 46.357 61.9051 46.4242 62.0286 46.4669C62.1521 46.5097 62.283 46.5272 62.4134 46.5185C62.5438 46.5097 62.6711 46.4749 62.7878 46.4159C62.9045 46.357 63.0082 46.2753 63.0927 46.1756L68.9388 39.6925C69.1115 39.5003 69.2009 39.2474 69.1875 38.9894C69.174 38.7314 69.0588 38.4892 68.8671 38.316M72.3984 50.916C72.5281 50.9318 72.6597 50.9214 72.7854 50.8853C72.911 50.8493 73.0282 50.7884 73.1298 50.7063C73.2315 50.6241 73.3156 50.5224 73.3772 50.4071C73.4388 50.2918 73.4766 50.1653 73.4884 50.0351C73.5002 49.905 73.4857 49.7737 73.4458 49.6493C73.4059 49.5248 73.3414 49.4096 73.2562 49.3105C73.1709 49.2114 73.0666 49.1305 72.9495 49.0725C72.8324 49.0145 72.7048 48.9806 72.5743 48.9728L63.8801 48.1858C63.752 48.173 63.6225 48.1858 63.4993 48.2234C63.3761 48.2609 63.2615 48.3225 63.1622 48.4045C63.0629 48.4865 62.9808 48.5874 62.9207 48.7013C62.8605 48.8152 62.8235 48.9399 62.8118 49.0681C62.8001 49.1964 62.8138 49.3257 62.8523 49.4487C62.8908 49.5716 62.9533 49.6857 63.036 49.7844C63.1188 49.883 63.2203 49.9643 63.3347 50.0236C63.4491 50.0829 63.574 50.1189 63.7024 50.1296L72.3984 50.916Z" fill="#FF6723"/>
<path d="M45.532 53.3881C44.9398 54.7501 43.5204 56.0503 41.6247 56.7929C39.749 57.5277 37.848 57.545 36.4899 56.968C37.2235 58.1984 41.2923 64.2608 48.6606 61.3743C56.0289 58.4879 54.8954 51.2756 54.5998 49.8736C53.995 51.2195 52.5881 52.4982 50.7124 53.2329C48.8149 53.9763 46.8918 53.9854 45.532 53.3881Z" fill="#BB1D80"/>
<path d="M33.8769 50.394C33.7559 50.085 33.6664 49.5624 33.7921 49.075C33.901 48.6466 34.1882 48.1756 34.9825 47.8645C35.7767 47.5533 36.3067 47.7021 36.6783 47.9444C37.0998 48.2175 37.391 48.661 37.512 48.97C37.6064 49.211 37.7927 49.4047 38.0299 49.5084C38.2671 49.612 38.5357 49.6172 38.7768 49.5228C39.0178 49.4284 39.2114 49.2421 39.3151 49.0049C39.4188 48.7677 39.424 48.499 39.3295 48.258C39.0946 47.6582 38.5773 46.8462 37.7377 46.303C36.8464 45.7297 35.6572 45.5037 34.2705 46.0469C32.8837 46.5902 32.1644 47.5638 31.8997 48.5899C31.6507 49.5596 31.8244 50.5062 32.0594 51.106C32.1538 51.347 32.3401 51.5407 32.5773 51.6444C32.8145 51.748 33.0831 51.7532 33.3241 51.6588C33.5652 51.5644 33.7588 51.3781 33.8625 51.1409C33.9661 50.9037 33.9713 50.635 33.8769 50.394ZM48.4172 44.698C48.2962 44.389 48.2068 43.8664 48.3324 43.379C48.4413 42.9506 48.7285 42.4796 49.5228 42.1685C50.317 41.8573 50.847 42.0061 51.2187 42.2484C51.6401 42.5214 51.9313 42.965 52.0523 43.274C52.1467 43.515 52.333 43.7087 52.5702 43.8124C52.8074 43.916 53.0761 43.9212 53.3171 43.8268C53.5581 43.7324 53.7517 43.5461 53.8554 43.3089C53.9591 43.0717 53.9643 42.803 53.8699 42.562C53.6349 41.9622 53.1176 41.1502 52.278 40.607C51.3867 40.0337 50.1976 39.8077 48.8108 40.3509C47.424 40.8942 46.7047 41.8678 46.44 42.8939C46.191 43.8636 46.3647 44.8102 46.5997 45.41C46.6941 45.651 46.8804 45.8447 47.1176 45.9484C47.3548 46.052 47.6234 46.0572 47.8645 45.9628C48.1055 45.8684 48.2991 45.6821 48.4028 45.4449C48.5065 45.2077 48.5117 44.939 48.4172 44.698Z" fill="#402A32"/>
</g>
<defs>
<clipPath id="clip0_255_1594">
<rect width="62.4648" height="62.4648" fill="white" transform="translate(0 22.784) rotate(-21.3922)"/>
</clipPath>
</defs>
</svg>
