<svg width="78" height="78" viewBox="0 0 78 78" fill="none" xmlns="http://www.w3.org/2000/svg">
<g clip-path="url(#clip0_246_313)">
<path d="M10.9568 48.7692C9.54692 52.7478 11.5361 57.1164 15.3774 58.4777L44.1903 68.6881C48.0317 70.0494 52.3915 67.7281 53.8021 63.7477L66.063 29.1487C66.8842 26.8314 64.4289 24.7575 62.2651 25.7965L51.2856 31.0748L33.7954 24.8768L28.3702 13.7851C27.3344 11.6123 24.1033 11.6711 23.2822 13.9884L10.9568 48.7692Z" fill="#FFB02E"/>
<path d="M29.3542 25.1629L22.7207 28.0288C21.5136 28.6042 20.162 27.3227 20.6042 26.0749L23.8889 16.8057C24.2679 15.7362 26.1249 15.5917 26.7003 16.7988L30.049 23.2021C30.3943 23.9264 30.0784 24.8176 29.3542 25.1629ZM54.3988 34.038L57.7475 40.4413C58.3229 41.6484 60.1799 41.5039 60.6221 40.2561L63.9068 30.9869C64.2858 29.9174 62.9342 28.6359 61.7271 29.2113L55.0936 32.0772C54.3694 32.4224 54.0535 33.3137 54.3988 34.038Z" fill="#FF822D"/>
<path d="M37.9599 46.4164L34.2415 45.0987C34.0651 45.0363 33.8742 45.0275 33.6929 45.0736C33.5115 45.1197 33.348 45.2186 33.2228 45.3577C33.0977 45.4968 33.0167 45.6699 32.99 45.8551C32.9633 46.0403 32.9921 46.2292 33.0728 46.398L34.272 48.9136C34.3254 49.026 34.4004 49.1267 34.4928 49.21C34.5851 49.2933 34.693 49.3576 34.8102 49.3991C34.9275 49.4406 35.0517 49.4587 35.176 49.4521C35.3002 49.4455 35.4218 49.4145 35.534 49.3609L38.0497 48.1617C38.2187 48.0814 38.36 47.9528 38.4559 47.7921C38.5517 47.6314 38.5978 47.4459 38.5882 47.259C38.5786 47.0722 38.5137 46.8924 38.4019 46.7424C38.29 46.5924 38.1362 46.4789 37.9599 46.4164Z" fill="#F70A8D"/>
<path d="M12.4023 37.4658C12.3165 37.3752 12.2136 37.3025 12.0996 37.2518C11.9856 37.2011 11.8626 37.1735 11.7379 37.1705C11.6131 37.1676 11.489 37.1894 11.3727 37.2346C11.2564 37.2799 11.1502 37.3477 11.0602 37.4342C10.9703 37.5207 10.8983 37.6241 10.8485 37.7385C10.7987 37.853 10.7721 37.9761 10.7701 38.1009C10.7681 38.2257 10.7909 38.3496 10.837 38.4655C10.8832 38.5815 10.9518 38.6871 11.039 38.7764L16.9058 44.8682C16.9916 44.9589 17.0944 45.0316 17.2085 45.0823C17.3225 45.133 17.4454 45.1606 17.5702 45.1635C17.695 45.1665 17.8191 45.1447 17.9354 45.0994C18.0517 45.0542 18.1578 44.9864 18.2478 44.8999C18.3378 44.8134 18.4097 44.71 18.4595 44.5955C18.5093 44.4811 18.536 44.358 18.538 44.2332C18.5399 44.1084 18.5172 43.9845 18.471 43.8685C18.4249 43.7526 18.3562 43.6469 18.2691 43.5576L12.4023 37.4658ZM8.04749 49.7546C7.92378 49.771 7.79805 49.7628 7.67755 49.7303C7.55704 49.6979 7.44415 49.6419 7.34538 49.5657C7.24661 49.4894 7.16391 49.3943 7.10206 49.286C7.0402 49.1776 7.00041 49.058 6.98498 48.9342C6.96955 48.8104 6.97878 48.6847 7.01214 48.5644C7.04551 48.4442 7.10234 48.3317 7.17938 48.2336C7.25641 48.1354 7.35211 48.0534 7.46097 47.9924C7.56983 47.9314 7.68969 47.8925 7.81364 47.8781L16.2071 46.8397C16.3308 46.8233 16.4566 46.8316 16.5771 46.864C16.6976 46.8964 16.8105 46.9524 16.9092 47.0287C17.008 47.1049 17.0907 47.2 17.1526 47.3084C17.2144 47.4168 17.2542 47.5363 17.2696 47.6602C17.2851 47.784 17.2758 47.9097 17.2425 48.0299C17.2091 48.1502 17.1523 48.2626 17.0752 48.3608C16.9982 48.459 16.9025 48.5409 16.7937 48.6019C16.6848 48.663 16.5649 48.7018 16.441 48.7163L8.04749 49.7546ZM60.7874 55.0596C60.7562 54.8112 60.6278 54.5853 60.4303 54.4314C60.2328 54.2776 59.9824 54.2083 59.7339 54.2388L51.3404 55.2772C51.2143 55.2888 51.0919 55.3257 50.9803 55.3856C50.8687 55.4455 50.7703 55.5272 50.6909 55.6258C50.6115 55.7245 50.5527 55.838 50.518 55.9598C50.4833 56.0816 50.4735 56.2092 50.489 56.3348C50.5046 56.4605 50.5452 56.5818 50.6085 56.6915C50.6718 56.8011 50.7565 56.897 50.8576 56.9733C50.9586 57.0496 51.074 57.1049 51.1968 57.1357C51.3196 57.1666 51.4474 57.1726 51.5725 57.1531L59.966 56.1148C60.2144 56.0836 60.4403 55.9552 60.5941 55.7577C60.748 55.5602 60.8172 55.3098 60.7867 55.0613M55.3791 66.5276C55.4641 66.6215 55.5671 66.6974 55.6819 66.7507C55.7968 66.804 55.9212 66.8337 56.0478 66.8381C56.1743 66.8424 56.3005 66.8213 56.4187 66.776C56.5369 66.7306 56.6449 66.662 56.7361 66.5741C56.8273 66.4863 56.8999 66.381 56.9497 66.2646C56.9994 66.1481 57.0253 66.0229 57.0257 65.8962C57.0261 65.7696 57.0011 65.6442 56.9522 65.5274C56.9032 65.4106 56.8313 65.3049 56.7406 65.2164L50.8739 59.1246C50.7881 59.034 50.6852 58.9612 50.5712 58.9105C50.4571 58.8599 50.3342 58.8323 50.2094 58.8293C50.0847 58.8264 49.9606 58.8482 49.8443 58.8934C49.728 58.9387 49.6218 59.0065 49.5318 59.093C49.4419 59.1794 49.3699 59.2829 49.3201 59.3973C49.2703 59.5117 49.2437 59.6349 49.2417 59.7597C49.2397 59.8844 49.2624 60.0084 49.3086 60.1243C49.3547 60.2403 49.4234 60.3459 49.5106 60.4352L55.3791 66.5276Z" fill="#FF6723"/>
<path d="M28.2785 40.6883C27.8791 40.9661 27.6112 41.4049 27.5039 41.7079C27.4201 41.9443 27.2459 42.1377 27.0195 42.2456C26.7931 42.3535 26.5331 42.3671 26.2967 42.2833C26.0604 42.1996 25.8669 42.0253 25.759 41.799C25.6511 41.5726 25.6376 41.3126 25.7213 41.0762C25.9298 40.488 26.4048 39.6853 27.2006 39.1326C28.0454 38.5492 29.1897 38.2926 30.5497 38.7745C31.9098 39.2565 32.6372 40.1764 32.9261 41.1616C33.1981 42.0926 33.0599 43.0147 32.8515 43.603C32.7677 43.8393 32.5935 44.0328 32.3671 44.1407C32.1407 44.2486 31.8807 44.2621 31.6444 44.1784C31.408 44.0946 31.2146 43.9204 31.1066 43.694C30.9987 43.4676 30.9852 43.2077 31.0689 42.9713C31.1763 42.6682 31.2463 42.1593 31.1092 41.6914C30.9901 41.28 30.697 40.8331 29.9181 40.5571C29.1391 40.281 28.6306 40.4419 28.2785 40.6883ZM42.5388 45.7417C42.1394 46.0195 41.8715 46.4583 41.7641 46.7614C41.6804 46.9977 41.5061 47.1912 41.2798 47.2991C41.0534 47.407 40.7934 47.4205 40.557 47.3368C40.3206 47.253 40.1272 47.0788 40.0193 46.8524C39.9114 46.626 39.8978 46.3661 39.9816 46.1297C40.19 45.5414 40.6651 44.7387 41.4609 44.186C42.3057 43.6026 43.4499 43.346 44.81 43.828C46.1701 44.3099 46.8975 45.2298 47.1864 46.215C47.4584 47.146 47.3202 48.0682 47.1117 48.6564C47.028 48.8928 46.8537 49.0862 46.6274 49.1941C46.401 49.302 46.141 49.3156 45.9046 49.2318C45.6682 49.1481 45.4748 48.9738 45.3669 48.7474C45.259 48.5211 45.2454 48.2611 45.3292 48.0247C45.4366 47.7217 45.5066 47.2128 45.3694 46.7449C45.2504 46.3335 44.9573 45.8865 44.1783 45.6105C43.3994 45.3345 42.8909 45.4954 42.5388 45.7417ZM32.1073 51.3648C32.191 51.1284 32.3653 50.935 32.5917 50.8271C32.818 50.7191 33.078 50.7056 33.3144 50.7893C34.1094 51.0711 34.862 51.6648 35.3512 52.402C35.8462 53.1452 36.1379 54.1454 35.774 55.1721C35.4329 56.1347 34.6618 56.7142 33.865 57.0036C34.3017 57.7302 34.5359 58.6659 34.1948 59.6285C33.831 60.6552 32.9746 61.2486 32.1221 61.5143C31.2746 61.778 30.3655 61.7676 29.5243 61.4846C29.2879 61.4008 29.0945 61.2266 28.9866 61.0002C28.8787 60.7738 28.8651 60.5138 28.9489 60.2774C29.0326 60.0411 29.2069 59.8476 29.4333 59.7397C29.6596 59.6318 29.9196 59.6183 30.156 59.702C30.5481 59.841 31.0862 59.8571 31.5579 59.7093C32.0224 59.5649 32.3024 59.307 32.4123 58.9968C32.5222 58.6866 32.4671 58.31 32.1971 57.9053C31.9315 57.5074 31.5496 57.2012 31.1035 57.0282C30.8671 56.9445 30.6737 56.7702 30.5658 56.5438C30.4579 56.3175 30.4443 56.0575 30.5281 55.8211C30.6118 55.5847 30.7861 55.3913 31.0125 55.2834C31.2388 55.1755 31.4988 55.1619 31.7352 55.2457C32.1273 55.3847 32.6654 55.4008 33.1371 55.2529C33.6016 55.1085 33.8816 54.8506 33.9915 54.5405C34.1014 54.2303 34.0463 53.8536 33.7763 53.449C33.5107 53.0511 33.1288 52.7448 32.6827 52.5719C32.4463 52.4881 32.2529 52.3139 32.145 52.0875C32.0371 51.8611 32.0235 51.6012 32.1073 51.3648Z" fill="#402A32"/>
<path d="M57.53 55.7191C56.2656 54.6671 54.0181 54.9681 54.0181 54.9681C54.0181 54.9681 54.6808 52.7471 53.8655 51.3166C51.8452 47.7777 48.117 48.826 46.5384 51.0896C43.7521 55.1021 44.9053 62.9224 44.9053 62.9224C44.9053 62.9224 52.275 65.3394 56.5932 63.1638C59.003 61.9292 60.6343 58.328 57.53 55.7191Z" fill="#CA0B4A"/>
</g>
<defs>
<clipPath id="clip0_246_313">
<rect width="60.5168" height="60.5168" fill="white" transform="translate(20.2137) rotate(19.5129)"/>
</clipPath>
</defs>
</svg>
