<svg width="341" height="406" viewBox="0 0 341 406" fill="none" xmlns="http://www.w3.org/2000/svg">
<path d="M133.638 185.611C96.1004 238.104 29.1604 326.646 0.382613 364.355L119.885 405.549C136.361 381.031 184.075 289.118 213.548 237.454C228.798 210.72 255.564 163.326 266.317 149.52C277.07 135.713 293.485 123.051 297.384 120.86C302.328 118.082 307.998 117.973 316.682 115.611C325.367 113.248 333.221 105.93 338.93 94.5321C343.497 85.4137 338.419 71.699 335.309 65.9815L320.441 68.4713L334.259 62.1217C334.744 58.1899 334.005 47.4747 327.172 36.0684C320.338 24.6622 307.841 24.0546 302.446 25.1766L287.262 41.7429L300.08 22.193C298.115 9.25511 286.586 3.06423 275.624 0.864352C266.855 -0.895554 254.223 2.19506 249.003 3.96035L248.24 31.631L245.626 4.87903C244.165 4.58572 238.645 5.12 228.257 9.60368C215.273 15.2083 219.079 29.1999 219.944 47.6187C220.809 66.0375 180.56 119.994 133.638 185.611Z" fill="#F59E0B"/>
</svg>
